<mxfile host="Electron" modified="2023-08-14T04:41:12.938Z" agent="Mozilla/5.0 (Macintosh; Intel Mac OS X 10_15_7) AppleWebKit/537.36 (KHTML, like Gecko) draw.io/21.6.8 Chrome/114.0.5735.289 Electron/25.5.0 Safari/537.36" etag="W_UHDLHH9SxapmKiiyCh" version="21.6.8" type="device">
  <diagram name="Page-1" id="74b105a0-9070-1c63-61bc-23e55f88626e">
    <mxGraphModel dx="3320" dy="2778" grid="1" gridSize="20" guides="1" tooltips="1" connect="1" arrows="1" fold="1" page="0" pageScale="1.5" pageWidth="1169" pageHeight="827" background="none" math="0" shadow="0">
      <root>
        <mxCell id="0" style=";html=1;" />
        <mxCell id="1" style=";html=1;" parent="0" />
        <mxCell id="10b056a9c633e61c-30" value="Services Architecture" style="text;strokeColor=none;fillColor=none;html=1;fontSize=52;fontStyle=1;verticalAlign=middle;align=center;" parent="1" vertex="1">
          <mxGeometry x="-60" y="-920" width="1590" height="40" as="geometry" />
        </mxCell>
        <mxCell id="voIu3GPFMe8vYq-QdKrB-20" value="" style="rounded=1;whiteSpace=wrap;html=1;opacity=10;fillColor=#CCFFE6;strokeWidth=4;gradientColor=none;align=left;" vertex="1" parent="1">
          <mxGeometry x="340" y="420" width="940" height="700" as="geometry" />
        </mxCell>
        <mxCell id="voIu3GPFMe8vYq-QdKrB-21" value="&lt;h1&gt;Controller&lt;/h1&gt;" style="text;html=1;strokeColor=none;fillColor=none;spacing=5;spacingTop=-20;whiteSpace=wrap;overflow=hidden;rounded=0;" vertex="1" parent="1">
          <mxGeometry x="380" y="460" width="190" height="60" as="geometry" />
        </mxCell>
        <mxCell id="voIu3GPFMe8vYq-QdKrB-29" value="" style="group" vertex="1" connectable="0" parent="1">
          <mxGeometry x="440" y="720" width="195" height="120" as="geometry" />
        </mxCell>
        <mxCell id="voIu3GPFMe8vYq-QdKrB-24" value="Automation" style="sketch=0;outlineConnect=0;fontColor=#232F3E;gradientColor=none;strokeColor=#232F3E;fillColor=#ffffff;dashed=0;verticalLabelPosition=bottom;verticalAlign=top;align=center;html=1;fontSize=12;fontStyle=0;aspect=fixed;shape=mxgraph.aws4.resourceIcon;resIcon=mxgraph.aws4.automation;" vertex="1" parent="voIu3GPFMe8vYq-QdKrB-29">
          <mxGeometry width="60" height="60" as="geometry" />
        </mxCell>
        <mxCell id="voIu3GPFMe8vYq-QdKrB-25" value="&lt;h1&gt;&lt;font style=&quot;font-size: 16px;&quot;&gt;Model Controller&lt;/font&gt;&lt;/h1&gt;&lt;p style=&quot;line-height: 20%;&quot;&gt;&lt;span style=&quot;background-color: initial;&quot;&gt;Custom Authorization&lt;/span&gt;&lt;/p&gt;&lt;p style=&quot;line-height: 20%;&quot;&gt;&#39;Predict&#39; Traffic Routing&lt;/p&gt;&lt;p style=&quot;line-height: 20%;&quot;&gt;Model Status Reads&lt;/p&gt;&lt;p style=&quot;line-height: 20%;&quot;&gt;&lt;br&gt;&lt;/p&gt;" style="text;html=1;strokeColor=none;fillColor=none;spacing=5;spacingTop=-20;whiteSpace=wrap;overflow=hidden;rounded=0;" vertex="1" parent="voIu3GPFMe8vYq-QdKrB-29">
          <mxGeometry x="60" width="135" height="120" as="geometry" />
        </mxCell>
        <mxCell id="voIu3GPFMe8vYq-QdKrB-30" value="" style="group" vertex="1" connectable="0" parent="1">
          <mxGeometry x="640" y="440" width="252" height="120" as="geometry" />
        </mxCell>
        <mxCell id="voIu3GPFMe8vYq-QdKrB-22" value="NAT gateway" style="sketch=0;outlineConnect=0;fontColor=#232F3E;gradientColor=none;strokeColor=#232F3E;fillColor=#ffffff;dashed=0;verticalLabelPosition=bottom;verticalAlign=top;align=center;html=1;fontSize=12;fontStyle=0;aspect=fixed;shape=mxgraph.aws4.resourceIcon;resIcon=mxgraph.aws4.nat_gateway;" vertex="1" parent="voIu3GPFMe8vYq-QdKrB-30">
          <mxGeometry width="60" height="60" as="geometry" />
        </mxCell>
        <mxCell id="voIu3GPFMe8vYq-QdKrB-23" value="&lt;h1&gt;&lt;span style=&quot;background-color: initial;&quot;&gt;&lt;font style=&quot;font-size: 16px;&quot;&gt;API Gateway&lt;/font&gt;&lt;/span&gt;&lt;br&gt;&lt;/h1&gt;&lt;div style=&quot;&quot;&gt;&lt;span style=&quot;background-color: initial;&quot;&gt;&lt;font style=&quot;font-size: 12px;&quot;&gt;API Key Authentication&lt;/font&gt;&lt;/span&gt;&lt;/div&gt;&lt;div style=&quot;&quot;&gt;&lt;span style=&quot;background-color: initial;&quot;&gt;&lt;font style=&quot;font-size: 12px;&quot;&gt;Rate Limiting&lt;/font&gt;&lt;/span&gt;&lt;/div&gt;&lt;div style=&quot;&quot;&gt;&lt;span style=&quot;background-color: initial;&quot;&gt;&lt;font style=&quot;font-size: 12px;&quot;&gt;Throttling&lt;/font&gt;&lt;/span&gt;&lt;/div&gt;&lt;div&gt;&lt;span style=&quot;background-color: initial; font-size: 15px;&quot;&gt;&lt;font style=&quot;font-size: 16px;&quot;&gt;&lt;br&gt;&lt;/font&gt;&lt;/span&gt;&lt;/div&gt;" style="text;html=1;strokeColor=none;fillColor=none;spacing=5;spacingTop=-20;whiteSpace=wrap;overflow=hidden;rounded=0;" vertex="1" parent="voIu3GPFMe8vYq-QdKrB-30">
          <mxGeometry x="62" width="190" height="120" as="geometry" />
        </mxCell>
        <mxCell id="voIu3GPFMe8vYq-QdKrB-31" value="" style="group" vertex="1" connectable="0" parent="1">
          <mxGeometry x="980" y="600" width="163" height="80" as="geometry" />
        </mxCell>
        <mxCell id="voIu3GPFMe8vYq-QdKrB-26" value="Flow logs" style="sketch=0;outlineConnect=0;fontColor=#232F3E;gradientColor=none;strokeColor=#232F3E;fillColor=#ffffff;dashed=0;verticalLabelPosition=bottom;verticalAlign=top;align=center;html=1;fontSize=12;fontStyle=0;aspect=fixed;shape=mxgraph.aws4.resourceIcon;resIcon=mxgraph.aws4.flow_logs;" vertex="1" parent="voIu3GPFMe8vYq-QdKrB-31">
          <mxGeometry width="60" height="60" as="geometry" />
        </mxCell>
        <mxCell id="voIu3GPFMe8vYq-QdKrB-28" value="&lt;h1&gt;&lt;font style=&quot;font-size: 16px;&quot;&gt;Logging&lt;/font&gt;&lt;/h1&gt;&lt;p&gt;Customer logs&lt;/p&gt;" style="text;html=1;strokeColor=none;fillColor=none;spacing=5;spacingTop=-20;whiteSpace=wrap;overflow=hidden;rounded=0;" vertex="1" parent="voIu3GPFMe8vYq-QdKrB-31">
          <mxGeometry x="60" width="103" height="80" as="geometry" />
        </mxCell>
        <mxCell id="voIu3GPFMe8vYq-QdKrB-34" value="" style="group" vertex="1" connectable="0" parent="1">
          <mxGeometry x="240" y="745" width="140" height="120" as="geometry" />
        </mxCell>
        <mxCell id="voIu3GPFMe8vYq-QdKrB-35" value="" style="group" vertex="1" connectable="0" parent="voIu3GPFMe8vYq-QdKrB-34">
          <mxGeometry x="-42" width="140" height="120" as="geometry" />
        </mxCell>
        <mxCell id="voIu3GPFMe8vYq-QdKrB-32" value="" style="shape=datastore;whiteSpace=wrap;html=1;" vertex="1" parent="voIu3GPFMe8vYq-QdKrB-35">
          <mxGeometry width="33.599999999999994" height="60" as="geometry" />
        </mxCell>
        <mxCell id="voIu3GPFMe8vYq-QdKrB-33" value="&lt;h1 style=&quot;font-size: 16px;&quot;&gt;&lt;font style=&quot;font-size: 16px;&quot;&gt;Model-state Store&lt;/font&gt;&lt;/h1&gt;&lt;p style=&quot;&quot;&gt;&lt;span style=&quot;font-size: 13px;&quot;&gt;Cache to store model details.&lt;/span&gt;&lt;/p&gt;" style="text;html=1;strokeColor=none;fillColor=none;spacing=5;spacingTop=-20;whiteSpace=wrap;overflow=hidden;rounded=0;" vertex="1" parent="voIu3GPFMe8vYq-QdKrB-35">
          <mxGeometry x="33.599999999999994" width="106.39999999999999" height="120" as="geometry" />
        </mxCell>
        <mxCell id="voIu3GPFMe8vYq-QdKrB-37" value="" style="group" vertex="1" connectable="0" parent="1">
          <mxGeometry x="260" y="1500" width="268" height="120" as="geometry" />
        </mxCell>
        <object label="" id="voIu3GPFMe8vYq-QdKrB-3">
          <mxCell style="sketch=0;outlineConnect=0;fontColor=#eff2f5;gradientColor=none;fillColor=#3F8624;strokeColor=none;dashed=0;verticalLabelPosition=bottom;verticalAlign=top;align=center;html=1;fontSize=12;fontStyle=0;aspect=fixed;pointerEvents=1;shape=mxgraph.aws4.multiple_volumes_resource;" vertex="1" parent="voIu3GPFMe8vYq-QdKrB-37">
            <mxGeometry width="78" height="60" as="geometry" />
          </mxCell>
        </object>
        <mxCell id="voIu3GPFMe8vYq-QdKrB-36" value="&lt;h1 style=&quot;font-size: 16px;&quot;&gt;ML Models&amp;nbsp;&lt;span style=&quot;color: rgb(239, 242, 245); text-align: center;&quot;&gt;&amp;amp; Transformers&lt;/span&gt;&lt;br&gt;&lt;/h1&gt;&lt;p&gt;Region: India&lt;/p&gt;&lt;p&gt;Kserve Cluster&lt;/p&gt;&lt;p&gt;Provider: AWS&lt;/p&gt;" style="text;html=1;strokeColor=none;fillColor=none;spacing=5;spacingTop=-20;whiteSpace=wrap;overflow=hidden;rounded=0;" vertex="1" parent="voIu3GPFMe8vYq-QdKrB-37">
          <mxGeometry x="78" width="190" height="120" as="geometry" />
        </mxCell>
        <mxCell id="voIu3GPFMe8vYq-QdKrB-38" value="" style="group" vertex="1" connectable="0" parent="1">
          <mxGeometry x="1050" y="1500" width="268" height="120" as="geometry" />
        </mxCell>
        <object label="" id="voIu3GPFMe8vYq-QdKrB-39">
          <mxCell style="sketch=0;outlineConnect=0;fontColor=#eff2f5;gradientColor=none;fillColor=#3F8624;strokeColor=none;dashed=0;verticalLabelPosition=bottom;verticalAlign=top;align=center;html=1;fontSize=12;fontStyle=0;aspect=fixed;pointerEvents=1;shape=mxgraph.aws4.multiple_volumes_resource;" vertex="1" parent="voIu3GPFMe8vYq-QdKrB-38">
            <mxGeometry width="78" height="60" as="geometry" />
          </mxCell>
        </object>
        <mxCell id="voIu3GPFMe8vYq-QdKrB-40" value="&lt;h1 style=&quot;font-size: 16px;&quot;&gt;ML Models&amp;nbsp;&lt;span style=&quot;color: rgb(239, 242, 245); text-align: center;&quot;&gt;&amp;amp; Transformers&lt;/span&gt;&lt;br&gt;&lt;/h1&gt;&lt;p&gt;Region: EU&lt;/p&gt;&lt;p&gt;Kserve Cluster&lt;/p&gt;&lt;p&gt;Provider: Azure&lt;/p&gt;" style="text;html=1;strokeColor=none;fillColor=none;spacing=5;spacingTop=-20;whiteSpace=wrap;overflow=hidden;rounded=0;" vertex="1" parent="voIu3GPFMe8vYq-QdKrB-38">
          <mxGeometry x="78" width="190" height="120" as="geometry" />
        </mxCell>
        <mxCell id="voIu3GPFMe8vYq-QdKrB-41" value="" style="group" vertex="1" connectable="0" parent="1">
          <mxGeometry x="670" y="1500" width="268" height="120" as="geometry" />
        </mxCell>
        <object label="" id="voIu3GPFMe8vYq-QdKrB-42">
          <mxCell style="sketch=0;outlineConnect=0;fontColor=#eff2f5;gradientColor=none;fillColor=#3F8624;strokeColor=none;dashed=0;verticalLabelPosition=bottom;verticalAlign=top;align=center;html=1;fontSize=12;fontStyle=0;aspect=fixed;pointerEvents=1;shape=mxgraph.aws4.multiple_volumes_resource;" vertex="1" parent="voIu3GPFMe8vYq-QdKrB-41">
            <mxGeometry width="78" height="60" as="geometry" />
          </mxCell>
        </object>
        <mxCell id="voIu3GPFMe8vYq-QdKrB-43" value="&lt;h1 style=&quot;font-size: 16px;&quot;&gt;ML Models&amp;nbsp;&lt;span style=&quot;color: rgb(239, 242, 245); text-align: center;&quot;&gt;&amp;amp; Transformers&lt;/span&gt;&lt;br&gt;&lt;/h1&gt;&lt;p&gt;Region: US&lt;/p&gt;&lt;p&gt;Kserve Cluster&lt;/p&gt;&lt;p&gt;Provider: GCP&lt;/p&gt;" style="text;html=1;strokeColor=none;fillColor=none;spacing=5;spacingTop=-20;whiteSpace=wrap;overflow=hidden;rounded=0;" vertex="1" parent="voIu3GPFMe8vYq-QdKrB-41">
          <mxGeometry x="78" width="190" height="120" as="geometry" />
        </mxCell>
        <mxCell id="voIu3GPFMe8vYq-QdKrB-46" value="" style="group" vertex="1" connectable="0" parent="1">
          <mxGeometry x="424" y="120" width="256" height="120" as="geometry" />
        </mxCell>
        <mxCell id="voIu3GPFMe8vYq-QdKrB-44" value="" style="outlineConnect=0;dashed=0;verticalLabelPosition=bottom;verticalAlign=top;align=center;html=1;shape=mxgraph.aws3.users;fillColor=#D2D3D3;gradientColor=none;" vertex="1" parent="voIu3GPFMe8vYq-QdKrB-46">
          <mxGeometry width="66" height="63" as="geometry" />
        </mxCell>
        <mxCell id="voIu3GPFMe8vYq-QdKrB-45" value="&lt;h1&gt;API Users&lt;/h1&gt;&lt;p style=&quot;line-height: 10%;&quot;&gt;Human Users using CLI/SDK&amp;nbsp;&lt;/p&gt;&lt;p style=&quot;line-height: 10%;&quot;&gt;&lt;span style=&quot;&quot;&gt;&lt;span style=&quot;white-space: pre;&quot;&gt;&amp;nbsp;&amp;nbsp;&amp;nbsp;&amp;nbsp;&lt;/span&gt;&lt;/span&gt;Invoking &#39;Predict&#39;&lt;/p&gt;&lt;p style=&quot;line-height: 10%;&quot;&gt;&lt;span style=&quot;&quot;&gt;&lt;span style=&quot;&quot;&gt;&lt;span style=&quot;white-space: pre;&quot;&gt;&amp;nbsp;&amp;nbsp;&amp;nbsp;&amp;nbsp;&lt;/span&gt;&lt;/span&gt;&#39;Get&#39;ting Model Status&lt;/span&gt;&lt;/p&gt;&amp;nbsp; &amp;nbsp; &#39;Get&#39;ting History/Logs" style="text;html=1;strokeColor=none;fillColor=none;spacing=5;spacingTop=-20;whiteSpace=wrap;overflow=hidden;rounded=0;" vertex="1" parent="voIu3GPFMe8vYq-QdKrB-46">
          <mxGeometry x="66" width="190" height="120" as="geometry" />
        </mxCell>
        <mxCell id="voIu3GPFMe8vYq-QdKrB-48" value="Message" style="sketch=0;outlineConnect=0;fontColor=#232F3E;gradientColor=none;strokeColor=#232F3E;fillColor=#ffffff;dashed=0;verticalLabelPosition=bottom;verticalAlign=top;align=center;html=1;fontSize=12;fontStyle=0;aspect=fixed;shape=mxgraph.aws4.resourceIcon;resIcon=mxgraph.aws4.message;" vertex="1" parent="1">
          <mxGeometry x="920" y="120" width="60" height="60" as="geometry" />
        </mxCell>
        <mxCell id="voIu3GPFMe8vYq-QdKrB-49" value="&lt;h1&gt;Apps&lt;/h1&gt;&lt;p style=&quot;line-height: 10%;&quot;&gt;Apps using SDK&lt;/p&gt;&lt;p style=&quot;line-height: 10%;&quot;&gt;&lt;span style=&quot;white-space: pre;&quot;&gt;&#x9;&lt;/span&gt;Invoking &#39;Predict&#39;&lt;br&gt;&lt;/p&gt;&lt;p style=&quot;line-height: 10%;&quot;&gt;&lt;span style=&quot;white-space: pre;&quot;&gt;&#x9;&lt;/span&gt;&#39;Get&#39;ting Model Status&lt;br&gt;&lt;/p&gt;&lt;p style=&quot;line-height: 10%;&quot;&gt;&lt;span style=&quot;white-space: pre;&quot;&gt;&#x9;&lt;/span&gt;&#39;Get&#39;ting History/Logs&lt;br&gt;&lt;/p&gt;" style="text;html=1;strokeColor=none;fillColor=none;spacing=5;spacingTop=-20;whiteSpace=wrap;overflow=hidden;rounded=0;" vertex="1" parent="1">
          <mxGeometry x="980" y="120" width="190" height="120" as="geometry" />
        </mxCell>
        <mxCell id="voIu3GPFMe8vYq-QdKrB-51" value="Report" style="strokeColor=#dddddd;shadow=1;strokeWidth=1;rounded=1;absoluteArcSize=1;arcSize=2;labelPosition=center;verticalLabelPosition=middle;align=center;verticalAlign=bottom;spacingLeft=0;fontColor=#999999;fontSize=12;whiteSpace=wrap;spacingBottom=2;html=1;" vertex="1" parent="1">
          <mxGeometry x="980" y="780" width="70" height="85" as="geometry" />
        </mxCell>
        <mxCell id="voIu3GPFMe8vYq-QdKrB-52" value="" style="sketch=0;dashed=0;connectable=0;html=1;fillColor=#757575;strokeColor=none;shape=mxgraph.gcp2.report;part=1;" vertex="1" parent="voIu3GPFMe8vYq-QdKrB-51">
          <mxGeometry x="0.5" width="50" height="50" relative="1" as="geometry">
            <mxPoint x="-25" y="10" as="offset" />
          </mxGeometry>
        </mxCell>
        <mxCell id="voIu3GPFMe8vYq-QdKrB-53" value="&lt;h1 style=&quot;font-size: 16px;&quot;&gt;&lt;font style=&quot;font-size: 16px;&quot;&gt;Metering&lt;/font&gt;&lt;/h1&gt;&lt;p style=&quot;&quot;&gt;&lt;font style=&quot;font-size: 12px;&quot;&gt;Usage per User, App &lt;i&gt;(more granularities as needed)&lt;/i&gt;&lt;/font&gt;&lt;/p&gt;" style="text;html=1;strokeColor=none;fillColor=none;spacing=5;spacingTop=-20;whiteSpace=wrap;overflow=hidden;rounded=0;" vertex="1" parent="1">
          <mxGeometry x="1050" y="780" width="190" height="120" as="geometry" />
        </mxCell>
        <mxCell id="voIu3GPFMe8vYq-QdKrB-58" value="" style="rounded=1;whiteSpace=wrap;html=1;fillColor=#d0cee2;strokeColor=#56517e;opacity=30;" vertex="1" parent="1">
          <mxGeometry x="-1120" y="500" width="860" height="460" as="geometry" />
        </mxCell>
        <mxCell id="voIu3GPFMe8vYq-QdKrB-59" value="&lt;font style=&quot;font-size: 24px;&quot;&gt;&lt;b&gt;Onboarding&lt;/b&gt;&lt;/font&gt;" style="text;html=1;strokeColor=none;fillColor=none;align=center;verticalAlign=middle;whiteSpace=wrap;rounded=0;" vertex="1" parent="1">
          <mxGeometry x="-1100" y="530" width="180" height="30" as="geometry" />
        </mxCell>
        <mxCell id="voIu3GPFMe8vYq-QdKrB-64" value="" style="group" vertex="1" connectable="0" parent="1">
          <mxGeometry x="-528" y="1020" width="268" height="120" as="geometry" />
        </mxCell>
        <mxCell id="voIu3GPFMe8vYq-QdKrB-60" value="" style="shadow=0;dashed=0;html=1;labelPosition=center;verticalLabelPosition=bottom;verticalAlign=top;align=center;outlineConnect=0;shape=mxgraph.veeam.3d.backup_repository;" vertex="1" parent="voIu3GPFMe8vYq-QdKrB-64">
          <mxGeometry width="78" height="62" as="geometry" />
        </mxCell>
        <mxCell id="voIu3GPFMe8vYq-QdKrB-61" value="&lt;h1&gt;&lt;font style=&quot;font-size: 16px;&quot;&gt;Model Repository&lt;/font&gt;&lt;/h1&gt;&lt;p&gt;Model Storage Repo&lt;/p&gt;" style="text;html=1;strokeColor=none;fillColor=none;spacing=5;spacingTop=-20;whiteSpace=wrap;overflow=hidden;rounded=0;" vertex="1" parent="voIu3GPFMe8vYq-QdKrB-64">
          <mxGeometry x="78" width="190" height="120" as="geometry" />
        </mxCell>
        <mxCell id="voIu3GPFMe8vYq-QdKrB-66" value="" style="group" vertex="1" connectable="0" parent="1">
          <mxGeometry x="-260" y="580" width="254" height="120" as="geometry" />
        </mxCell>
        <mxCell id="voIu3GPFMe8vYq-QdKrB-63" value="" style="image;aspect=fixed;html=1;points=[];align=center;fontSize=12;image=img/lib/azure2/general/Code.svg;" vertex="1" parent="voIu3GPFMe8vYq-QdKrB-66">
          <mxGeometry y="5" width="64" height="52" as="geometry" />
        </mxCell>
        <mxCell id="voIu3GPFMe8vYq-QdKrB-65" value="&lt;h1&gt;&lt;font style=&quot;font-size: 16px;&quot;&gt;Code Repository&lt;/font&gt;&lt;/h1&gt;&lt;p&gt;Transformer, UI-App Code storage&lt;/p&gt;" style="text;html=1;strokeColor=none;fillColor=none;spacing=5;spacingTop=-20;whiteSpace=wrap;overflow=hidden;rounded=0;" vertex="1" parent="voIu3GPFMe8vYq-QdKrB-66">
          <mxGeometry x="64" width="190" height="120" as="geometry" />
        </mxCell>
        <mxCell id="voIu3GPFMe8vYq-QdKrB-70" value="" style="group" vertex="1" connectable="0" parent="1">
          <mxGeometry x="-880" y="1020" width="268" height="120" as="geometry" />
        </mxCell>
        <mxCell id="voIu3GPFMe8vYq-QdKrB-67" value="" style="sketch=0;points=[[0,0,0],[0.25,0,0],[0.5,0,0],[0.75,0,0],[1,0,0],[0,1,0],[0.25,1,0],[0.5,1,0],[0.75,1,0],[1,1,0],[0,0.25,0],[0,0.5,0],[0,0.75,0],[1,0.25,0],[1,0.5,0],[1,0.75,0]];outlineConnect=0;fontColor=#232F3E;gradientColor=#F54749;gradientDirection=north;fillColor=#C7131F;strokeColor=#ffffff;dashed=0;verticalLabelPosition=bottom;verticalAlign=top;align=center;html=1;fontSize=12;fontStyle=0;aspect=fixed;shape=mxgraph.aws4.resourceIcon;resIcon=mxgraph.aws4.artifact;" vertex="1" parent="voIu3GPFMe8vYq-QdKrB-70">
          <mxGeometry width="78" height="78" as="geometry" />
        </mxCell>
        <mxCell id="voIu3GPFMe8vYq-QdKrB-69" value="&lt;h1 style=&quot;font-size: 16px;&quot;&gt;&lt;font style=&quot;font-size: 16px;&quot;&gt;Container Repository&lt;/font&gt;&lt;/h1&gt;&lt;p style=&quot;font-size: 16px;&quot;&gt;Store Docker images of Transformers and UI Apps&lt;/p&gt;" style="text;html=1;strokeColor=none;fillColor=none;spacing=5;spacingTop=-20;whiteSpace=wrap;overflow=hidden;rounded=0;" vertex="1" parent="voIu3GPFMe8vYq-QdKrB-70">
          <mxGeometry x="78" width="190" height="120" as="geometry" />
        </mxCell>
        <mxCell id="voIu3GPFMe8vYq-QdKrB-71" value="" style="group" vertex="1" connectable="0" parent="1">
          <mxGeometry x="1472" y="780" width="258" height="120" as="geometry" />
        </mxCell>
        <mxCell id="voIu3GPFMe8vYq-QdKrB-55" value="&lt;h1&gt;&lt;font style=&quot;font-size: 16px;&quot;&gt;Billing&lt;/font&gt;&lt;/h1&gt;&lt;p&gt;Integration to Billing Systems&lt;/p&gt;" style="text;html=1;strokeColor=none;fillColor=none;spacing=5;spacingTop=-20;whiteSpace=wrap;overflow=hidden;rounded=0;" vertex="1" parent="voIu3GPFMe8vYq-QdKrB-71">
          <mxGeometry x="68" width="190" height="120" as="geometry" />
        </mxCell>
        <mxCell id="voIu3GPFMe8vYq-QdKrB-62" value="" style="image;aspect=fixed;html=1;points=[];align=center;fontSize=12;image=img/lib/azure2/migrate/Cost_Management_and_Billing.svg;" vertex="1" parent="voIu3GPFMe8vYq-QdKrB-71">
          <mxGeometry y="8.5" width="68" height="68" as="geometry" />
        </mxCell>
        <mxCell id="voIu3GPFMe8vYq-QdKrB-76" value="" style="group" vertex="1" connectable="0" parent="1">
          <mxGeometry x="-328" y="-260" width="268" height="120" as="geometry" />
        </mxCell>
        <mxCell id="voIu3GPFMe8vYq-QdKrB-72" value="" style="sketch=0;points=[[0,0,0],[0.25,0,0],[0.5,0,0],[0.75,0,0],[1,0,0],[0,1,0],[0.25,1,0],[0.5,1,0],[0.75,1,0],[1,1,0],[0,0.25,0],[0,0.5,0],[0,0.75,0],[1,0.25,0],[1,0.5,0],[1,0.75,0]];outlineConnect=0;fontColor=#232F3E;gradientColor=#4D72F3;gradientDirection=north;fillColor=#3334B9;strokeColor=#ffffff;dashed=0;verticalLabelPosition=bottom;verticalAlign=top;align=center;html=1;fontSize=12;fontStyle=0;aspect=fixed;shape=mxgraph.aws4.resourceIcon;resIcon=mxgraph.aws4.support;" vertex="1" parent="voIu3GPFMe8vYq-QdKrB-76">
          <mxGeometry width="78" height="78" as="geometry" />
        </mxCell>
        <mxCell id="voIu3GPFMe8vYq-QdKrB-74" value="&lt;h1 style=&quot;font-size: 16px;&quot;&gt;&lt;font style=&quot;font-size: 16px;&quot;&gt;Developers&lt;/font&gt;&lt;/h1&gt;&lt;p style=&quot;&quot;&gt;Model Creators, App Creators, Tech Users.&lt;/p&gt;" style="text;html=1;strokeColor=none;fillColor=none;spacing=5;spacingTop=-20;whiteSpace=wrap;overflow=hidden;rounded=0;" vertex="1" parent="voIu3GPFMe8vYq-QdKrB-76">
          <mxGeometry x="78" width="190" height="120" as="geometry" />
        </mxCell>
        <mxCell id="voIu3GPFMe8vYq-QdKrB-77" value="" style="group" vertex="1" connectable="0" parent="1">
          <mxGeometry x="945.5" y="-260" width="259" height="120" as="geometry" />
        </mxCell>
        <mxCell id="voIu3GPFMe8vYq-QdKrB-73" value="" style="image;aspect=fixed;html=1;points=[];align=center;fontSize=12;image=img/lib/azure2/management_governance/My_Customers.svg;" vertex="1" parent="voIu3GPFMe8vYq-QdKrB-77">
          <mxGeometry width="69" height="56.00000000000001" as="geometry" />
        </mxCell>
        <mxCell id="voIu3GPFMe8vYq-QdKrB-75" value="&lt;h1 style=&quot;font-size: 16px;&quot;&gt;&lt;font style=&quot;font-size: 16px;&quot;&gt;Customers&lt;/font&gt;&lt;/h1&gt;&lt;p style=&quot;&quot;&gt;Non-tech end-users&lt;/p&gt;" style="text;html=1;strokeColor=none;fillColor=none;spacing=5;spacingTop=-20;whiteSpace=wrap;overflow=hidden;rounded=0;" vertex="1" parent="voIu3GPFMe8vYq-QdKrB-77">
          <mxGeometry x="69" width="190" height="120" as="geometry" />
        </mxCell>
      </root>
    </mxGraphModel>
  </diagram>
</mxfile>
